<svg width="32px" height="32px" viewBox="0 0 32 32" version="1.1" xmlns="http://www.w3.org/2000/svg" xmlns:xlink="http://www.w3.org/1999/xlink" style="width: 24px; height: 24px; color: rgb(245, 245, 245);"> <g stroke="none" stroke-width="1" fill="none" fill-rule="evenodd"> <path d="M3.65384615,4 L28.3461538,4 C29.8461538,4 31,5.24864865 31,6.61081081 L31,22.2756757 C31,23.7513514 29.8461538,24.8864865 28.3461538,24.8864865 L20.2692308,24.8864865 L17.1538462,29.6540541 C16.5769231,30.4486486 15.4230769,30.4486486 14.8461538,29.6540541 L11.7307692,24.8864865 L3.65384615,24.8864865 C2.26923077,24.8864865 1,23.7513514 1,22.2756757 L1,6.61081081 C1,5.24864865 2.26923077,4 3.65384615,4 Z M8.44318182,12.4375 C9.46590909,12.4375 10.375,13.2329545 10.375,14.2556818 C10.375,15.2784091 9.46590909,16.1875 8.44318182,16.1875 C7.42045455,16.1875 6.625,15.2784091 6.625,14.2556818 C6.625,13.2329545 7.42045455,12.4375 8.44318182,12.4375 Z M16,12.4375 C17.0546875,12.4375 17.875,13.2329545 17.875,14.2556818 C17.875,15.2784091 17.0546875,16.1875 16,16.1875 C14.9453125,16.1875 14.125,15.2784091 14.125,14.2556818 C14.125,13.2329545 14.9453125,12.4375 16,12.4375 Z M23.5,12.4375 C24.5546875,12.4375 25.375,13.2329545 25.375,14.2556818 C25.375,15.2784091 24.5546875,16.1875 23.5,16.1875 C22.4453125,16.1875 21.625,15.2784091 21.625,14.2556818 C21.625,13.2329545 22.4453125,12.4375 23.5,12.4375 Z" id="Shape-Copy-3" fill="currentColor"></path> </g> </svg>